<svg xmlns="http://www.w3.org/2000/svg" xmlns:xlink="http://www.w3.org/1999/xlink" width="500" zoomAndPan="magnify" viewBox="0 0 375 187.499995" height="250" preserveAspectRatio="xMidYMid meet" version="1.0"><defs><g/></defs><g fill="#f76c6f" fill-opacity="1"><g transform="translate(130.453539, 96.705036)"><g><path d="M 14.0625 -7.171875 L 34.375 -7.171875 L 34.375 0 L 6.15625 0 L 6.15625 -46.90625 L 14.0625 -46.90625 Z M 14.0625 -7.171875 "/></g></g></g><g fill="#f76c6f" fill-opacity="1"><g transform="translate(242.575855, 49.615865)"><g><path d="M -14.0625 7.171875 L -34.375 7.171875 L -34.375 0 L -6.15625 0 L -6.15625 46.90625 L -14.0625 46.90625 Z M -14.0625 7.171875 "/></g></g></g><path stroke-linecap="butt" transform="matrix(0.000000000000000046, -0.749552, 0.748005, 0.000000000000000046, 184.693687, 110.737694)" fill="none" stroke-linejoin="miter" d="M -0.000783311 2.002284 L 105.781141 2.002284 " stroke="#f76c6f" stroke-width="4" stroke-opacity="1" stroke-miterlimit="4"/><g fill="#000000" fill-opacity="1"><g transform="translate(31.319701, 148.582109)"><g><path d="M 5.8125 -2.953125 L 14.1875 -2.953125 L 14.1875 0 L 2.546875 0 L 2.546875 -19.359375 L 5.8125 -19.359375 Z M 5.8125 -2.953125 "/></g></g></g><g fill="#000000" fill-opacity="1"><g transform="translate(52.774552, 148.582109)"><g><path d="M 19 -19.359375 L 19 -8.015625 C 19 -5.492188 18.25 -3.503906 16.75 -2.046875 C 15.257812 -0.585938 13.207031 0.140625 10.59375 0.140625 C 7.976562 0.140625 5.914062 -0.585938 4.40625 -2.046875 C 2.90625 -3.503906 2.15625 -5.492188 2.15625 -8.015625 L 2.15625 -19.359375 L 5.421875 -19.359375 L 5.421875 -8.015625 C 5.421875 -6.398438 5.882812 -5.125 6.8125 -4.1875 C 7.75 -3.257812 9.019531 -2.796875 10.625 -2.796875 C 12.207031 -2.796875 13.453125 -3.253906 14.359375 -4.171875 C 15.273438 -5.097656 15.734375 -6.378906 15.734375 -8.015625 L 15.734375 -19.359375 Z M 19 -19.359375 "/></g></g></g><g fill="#000000" fill-opacity="1"><g transform="translate(80.587863, 148.582109)"><g><path d="M 23.015625 0 L 20 0 L 19.96875 -14.46875 L 13.859375 -2.015625 L 11.71875 -2.015625 L 5.609375 -14.46875 L 5.609375 0 L 2.546875 0 L 2.546875 -19.359375 L 6.421875 -19.359375 L 12.8125 -6.5 L 19.171875 -19.359375 L 23.015625 -19.359375 Z M 23.015625 0 "/></g></g></g><g fill="#000000" fill-opacity="1"><g transform="translate(112.852082, 148.582109)"><g><path d="M 5.8125 0 L 2.546875 0 L 2.546875 -19.359375 L 5.8125 -19.359375 Z M 5.8125 0 "/></g></g></g><g fill="#000000" fill-opacity="1"><g transform="translate(127.893208, 148.582109)"><g><path d="M 19.328125 0 L 16.125 0 L 5.8125 -13.890625 L 5.8125 0 L 2.546875 0 L 2.546875 -19.359375 L 5.75 -19.359375 L 16.125 -5.453125 L 16.125 -19.359375 L 19.328125 -19.359375 Z M 19.328125 0 "/></g></g></g><g fill="#000000" fill-opacity="1"><g transform="translate(156.480586, 148.582109)"><g><path d="M 15.046875 -4.375 L 5.28125 -4.375 L 3.421875 0 L 0.03125 0 L 8.578125 -19.359375 L 11.921875 -19.359375 L 20.375 0 L 16.890625 0 Z M 13.796875 -7.28125 L 10.15625 -15.875 L 6.5 -7.28125 Z M 13.796875 -7.28125 "/></g></g></g><g fill="#000000" fill-opacity="1"><g transform="translate(183.575109, 148.582109)"><g><path d="M 14.828125 0 L 11.28125 -5.859375 C 11.09375 -5.835938 10.800781 -5.828125 10.40625 -5.828125 L 5.8125 -5.828125 L 5.8125 0 L 2.546875 0 L 2.546875 -19.359375 L 10.40625 -19.359375 C 12.875 -19.359375 14.789062 -18.78125 16.15625 -17.625 C 17.519531 -16.476562 18.203125 -14.851562 18.203125 -12.75 C 18.203125 -11.195312 17.851562 -9.882812 17.15625 -8.8125 C 16.46875 -7.75 15.476562 -6.96875 14.1875 -6.46875 L 18.53125 0 Z M 5.8125 -8.765625 L 10.40625 -8.765625 C 13.53125 -8.765625 15.09375 -10.066406 15.09375 -12.671875 C 15.09375 -15.171875 13.53125 -16.421875 10.40625 -16.421875 L 5.8125 -16.421875 Z M 5.8125 -8.765625 "/></g></g></g><g fill="#000000" fill-opacity="1"><g transform="translate(210.254956, 148.582109)"><g><path d="M 10.484375 -6.4375 L 10.484375 0 L 7.25 0 L 7.25 -6.328125 L 0.03125 -19.359375 L 3.3125 -19.359375 L 8.84375 -9.921875 L 14.265625 -19.359375 L 17.59375 -19.359375 Z M 10.484375 -6.4375 "/></g></g></g><g fill="#000000" fill-opacity="1"><g transform="translate(234.557285, 148.582109)"><g/></g></g><g fill="#000000" fill-opacity="1"><g transform="translate(248.382021, 148.582109)"><g><path d="M 5.8125 -2.953125 L 14.1875 -2.953125 L 14.1875 0 L 2.546875 0 L 2.546875 -19.359375 L 5.8125 -19.359375 Z M 5.8125 -2.953125 "/></g></g></g><g fill="#000000" fill-opacity="1"><g transform="translate(269.836869, 148.582109)"><g><path d="M 15.046875 -4.375 L 5.28125 -4.375 L 3.421875 0 L 0.03125 0 L 8.578125 -19.359375 L 11.921875 -19.359375 L 20.375 0 L 16.890625 0 Z M 13.796875 -7.28125 L 10.15625 -15.875 L 6.5 -7.28125 Z M 13.796875 -7.28125 "/></g></g></g><g fill="#000000" fill-opacity="1"><g transform="translate(296.931392, 148.582109)"><g><path d="M 19.328125 0 L 16.125 0 L 5.8125 -13.890625 L 5.8125 0 L 2.546875 0 L 2.546875 -19.359375 L 5.75 -19.359375 L 16.125 -5.453125 L 16.125 -19.359375 L 19.328125 -19.359375 Z M 19.328125 0 "/></g></g></g><g fill="#000000" fill-opacity="1"><g transform="translate(325.51877, 148.582109)"><g><path d="M 16.375 -16.421875 L 5.8125 -16.421875 L 5.8125 -11.203125 L 15.265625 -11.203125 L 15.265625 -8.265625 L 5.8125 -8.265625 L 5.8125 -2.9375 L 16.703125 -2.9375 L 16.703125 0 L 2.546875 0 L 2.546875 -19.359375 L 16.375 -19.359375 Z M 16.375 -16.421875 "/></g></g></g></svg>